PathFileType	4	(X/Y/Z)	D:\MotionData\NordSprintingStudy\Kristen_Nord_test_zero_plates\Trimmed_NordZeroed000004.trc
DataRate	CameraRate	NumFrames	NumMarkers	Units	OrigDataRate	OrigDataStartFrame	OrigNumFrames
200.00	200.00	      5	52	mm	200.00	1196	      1912
Frame#	Time	C7			R_Shoulder			L_Shoulder			Sternum			R_humerus			R_elbow_med			R_elbow_lat			R_forearm			R_wrist_radius			R_wrist_ulna			L_humerus			L_elbow_med			L_elbow_lat			L_forearm			L_wrist_radius			L_wrist_ulna			r.ASIS			r.PSIS			r_IC			L.ASIS			L.PSIS			l_IC			r_thigh1			r_thigh2			r_thigh3			r_thigh4			r_thigh5			r_knee			r_mknee			r_shank_antsup			r_sh2			r_sh3			r_sh4			r_ankle			r_mankle			r_calc			r_5meta			r_toe			L_thigh1			L_thigh2			L_thigh3			L_thigh4			L_knee			L_mknee			L_shank_antsup			L_sh2			L_sh3			L_ankle			L_mankle			L_calc			L_5meta			L_toe			
		X1	Y1	Z1	X2	Y2	Z2	X3	Y3	Z3	X4	Y4	Z4	X5	Y5	Z5	X6	Y6	Z6	X7	Y7	Z7	X8	Y8	Z8	X9	Y9	Z9	X10	Y10	Z10	X11	Y11	Z11	X12	Y12	Z12	X13	Y13	Z13	X14	Y14	Z14	X15	Y15	Z15	X16	Y16	Z16	X17	Y17	Z17	X18	Y18	Z18	X19	Y19	Z19	X20	Y20	Z20	X21	Y21	Z21	X22	Y22	Z22	X23	Y23	Z23	X24	Y24	Z24	X25	Y25	Z25	X26	Y26	Z26	X27	Y27	Z27	X28	Y28	Z28	X29	Y29	Z29	X30	Y30	Z30	X31	Y31	Z31	X32	Y32	Z32	X33	Y33	Z33	X34	Y34	Z34	X35	Y35	Z35	X36	Y36	Z36	X37	Y37	Z37	X38	Y38	Z38	X39	Y39	Z39	X40	Y40	Z40	X41	Y41	Z41	X42	Y42	Z42	X43	Y43	Z43	X44	Y44	Z44	X45	Y45	Z45	X46	Y46	Z46	X47	Y47	Z47	X48	Y48	Z48	X49	Y49	Z49	X50	Y50	Z50	X51	Y51	Z51	X52	Y52	Z52	

1196	5.975	1221.26550	678.28619	1202.89954	1340.95642	722.21124	1193.71021	1086.82849	703.94348	1202.54663	1206.70398	781.13953	1109.54993	1498.02637	639.14441	1169.64417	1628.40649	646.30151	1091.31152	1607.99146	588.63177	1150.90320	1614.72998	684.65167	1231.51904	1577.27515	807.99371	1258.18396	1633.85815	780.68469	1290.03040	947.68158	589.29382	1173.94958	793.07281	594.73663	1105.52637	821.71649	548.87933	1177.86975	835.26471	629.90271	1241.06543	834.52557	744.13428	1291.41870	906.84186	739.61005	1271.02271	1337.96216	577.85638	680.63507	1299.43274	474.17035	844.91931	1379.73572	561.52380	795.93201	1108.51050	550.65369	676.47455	1186.55042	461.14365	848.11707	1075.75842	554.16797	784.99237	1362.58752	486.14743	469.69061	1354.93176	433.90308	365.27054	1392.42334	394.21774	352.28708	1419.14099	402.26669	507.79959	1407.96338	352.18237	402.31943	1392.77698	316.34058	304.54791	1269.86389	302.19791	307.85077	1417.15588	208.46336	310.86609	1424.72058	86.89461	322.86130	1422.73340	213.38495	388.35944	1414.58325	97.10509	403.22501	1423.14856	-71.05601	368.21527	1342.47058	-72.00487	352.61115	1359.87292	-76.56116	442.17142	1429.79651	-190.52856	306.18179	1388.77087	-179.65096	257.08893	1037.28357	427.59375	518.22388	1030.88147	363.80194	394.20856	1046.93799	323.36932	575.45361	1058.73926	264.26657	449.78067	1035.17737	267.20947	338.36139	1161.68494	268.14267	309.89209	1026.77332	166.58566	324.29984	1040.30994	175.69066	412.23932	1047.21069	54.84172	412.89819	1081.09949	-109.57245	380.54440	1155.77466	-102.00214	351.67523	1124.79333	-113.84822	438.27051	1103.88245	-243.35355	300.79169	1140.02319	-216.95914	256.46655	
1197	5.980	1221.56982	678.64648	1203.06848	1340.88660	722.45813	1193.61829	1086.78479	704.14935	1202.43079	1206.64075	781.31067	1109.40479	1497.94678	639.36163	1169.49280	1628.30310	646.47205	1091.14490	1607.91272	588.82117	1150.76172	1614.65308	684.88464	1231.35095	1577.24426	808.20575	1258.00171	1633.87561	780.91553	1289.77747	947.65692	589.48224	1173.87134	793.00110	594.89996	1105.50220	821.64752	549.06000	1177.85181	835.24274	630.11993	1241.04358	834.50067	744.32825	1291.36475	906.77936	739.81616	1270.93848	1337.89026	577.96503	680.55414	1299.38586	474.37689	844.82141	1379.66992	561.67810	795.87457	1108.46729	550.77081	676.39758	1186.49023	461.29459	848.04596	1075.69739	554.34412	784.88916	1362.57178	486.17001	469.61581	1354.75464	434.29187	364.86917	1392.42529	394.23392	352.27277	1419.11438	402.36060	507.77942	1408.52905	352.18243	402.54642	1392.77271	316.35754	304.56998	1269.83044	302.20258	307.86063	1417.16003	208.47470	310.88806	1424.73560	86.88185	322.87949	1422.74304	213.38319	388.35373	1414.60474	97.05591	403.25043	1423.13635	-71.04092	368.26569	1342.48401	-72.00540	352.58575	1359.87915	-76.56572	442.19424	1429.79724	-190.53836	306.16245	1388.74683	-179.64063	257.09280	1037.27563	427.64880	518.14813	1030.85693	363.80228	394.17822	1046.89331	323.47031	575.39532	1058.74536	264.29300	449.78088	1034.56409	267.02771	338.78467	1161.65259	268.14102	309.87701	1026.76599	166.59088	324.27789	1040.28101	175.65164	412.22247	1047.51721	54.38609	412.85776	1081.04150	-109.54925	380.57190	1155.72705	-102.02201	351.75528	1124.69543	-113.85686	438.30508	1103.84802	-243.41313	300.75989	1139.96753	-217.00813	256.46732	
1198	5.985	1221.11047	678.72046	1202.72107	1340.78564	722.62402	1193.52307	1086.93738	703.79718	1203.65100	1206.55652	781.50317	1109.32092	1497.88416	639.55713	1169.34875	1628.12354	646.62848	1091.02661	1607.79150	589.00525	1150.61951	1614.58215	685.05536	1231.22900	1577.22705	808.42334	1257.78784	1633.86292	781.15283	1289.56726	947.58136	589.66272	1173.83826	792.91022	595.06201	1105.51245	821.59601	549.23987	1177.84277	835.21899	630.33875	1240.95251	834.48779	744.51709	1291.30994	906.74591	740.01965	1270.86377	1337.86475	578.10840	680.52216	1299.30774	474.56161	844.78870	1379.60840	561.85138	795.79962	1108.42505	550.85321	676.25336	1186.27991	461.45279	847.84918	1075.64575	554.52032	784.75275	1362.55652	486.27869	469.59885	1354.74707	434.30615	364.76596	1392.36865	394.25146	352.26746	1419.09387	402.40082	507.76578	1407.94238	352.19156	402.35370	1392.77527	316.36172	304.57053	1269.84229	302.21536	307.83337	1417.15088	208.45253	310.88217	1424.72473	86.90608	322.86911	1422.72693	213.36713	388.38495	1414.59949	97.09897	403.20499	1423.14709	-71.04398	368.25781	1342.47351	-72.01383	352.59198	1359.88025	-76.59008	442.18076	1429.80371	-190.48531	306.14862	1388.42883	-179.54927	256.87274	1037.25085	427.77203	518.04993	1030.85620	363.80692	394.12027	1046.84961	323.51974	575.38080	1058.70203	264.31824	449.77704	1034.54089	267.03085	338.75238	1161.64148	268.05679	309.89603	1026.76013	166.56155	324.28561	1040.24695	175.63646	412.23901	1047.45715	54.38904	412.87332	1080.94202	-109.57101	380.55109	1155.65894	-102.02783	351.79788	1124.58447	-113.84286	438.32227	1103.74170	-243.43149	300.82813	1139.87646	-217.07089	256.51999	
1199	5.990	1221.04529	678.92126	1202.59082	1340.75281	722.84760	1193.31128	1086.90259	704.02972	1203.53027	1206.48328	781.74719	1109.22888	1497.78979	639.74762	1169.18384	1628.01172	646.80444	1090.84302	1607.71289	589.18414	1150.45520	1614.50305	685.26892	1231.03723	1577.20679	808.64240	1257.60181	1633.86279	781.38031	1289.34753	947.51855	589.81342	1173.78003	792.84088	595.23639	1105.47388	821.55206	549.42035	1177.80994	835.16602	630.46667	1240.89417	834.46564	744.69910	1291.25159	906.70831	740.23218	1270.80859	1337.80237	578.20581	680.45178	1299.25037	474.71463	844.71472	1379.54041	561.97949	795.75635	1108.37805	551.00983	676.19525	1186.21936	461.60083	847.76501	1075.67871	554.52490	784.45251	1362.58142	486.28824	469.52832	1354.66833	434.34473	364.75565	1392.39075	394.25073	352.24680	1419.05713	402.41852	507.73102	1407.93250	352.23569	402.34552	1392.74561	316.34155	304.57001	1269.83862	302.22488	307.81326	1417.13733	208.44904	310.90668	1424.71924	86.89457	322.89969	1422.72375	213.37607	388.35559	1414.56165	97.03995	403.20883	1422.82568	-70.91740	368.01035	1342.46985	-72.01030	352.55237	1359.86621	-76.58865	442.17456	1429.84827	-190.50175	306.15399	1388.75134	-179.53738	257.16214	1037.24634	427.82764	517.97498	1030.85925	363.82602	394.07669	1046.82568	323.60211	575.32532	1058.65808	264.38342	449.75647	1035.15991	267.19806	338.28369	1161.61035	268.04370	309.86554	1026.74133	166.47464	324.26846	1040.21582	175.63924	412.22632	1047.05981	54.79851	412.90549	1080.87622	-109.58605	380.60513	1155.62561	-102.07867	351.75424	1124.49121	-113.84654	438.33252	1103.72485	-243.52307	300.82617	1139.77295	-217.13402	256.57162	
1200	5.995	1221.34644	679.25256	1202.77563	1340.67627	723.03668	1193.18274	1086.79333	704.26605	1203.41394	1206.41980	781.93915	1109.14063	1497.75305	639.97992	1169.17371	1628.60669	646.89691	1090.39404	1607.66125	589.34058	1150.28577	1614.47766	685.45294	1230.85388	1577.20239	808.80731	1257.43689	1633.85413	781.57007	1289.13013	947.48132	590.06201	1173.68616	792.73975	595.41797	1105.45447	821.50854	549.56921	1177.79590	835.16833	630.65942	1240.83386	834.45459	744.84546	1291.21008	906.67725	740.42236	1270.71704	1337.76990	578.34601	680.41479	1299.17944	474.88882	844.67773	1379.48816	562.15857	795.67114	1108.33459	551.13068	676.07013	1186.27893	461.81097	847.79712	1075.63147	554.68854	784.32739	1362.51672	486.35416	469.51151	1354.69275	434.37228	364.74728	1392.34583	394.27808	352.20227	1419.03394	402.48633	507.74036	1407.93848	352.24075	402.37741	1392.76404	316.34985	304.50461	1269.84326	302.22266	307.80350	1417.12158	208.45123	310.90961	1424.72986	86.88163	322.92178	1422.72522	213.37000	388.40820	1414.54004	97.07439	403.19110	1423.15955	-71.04925	368.20197	1342.47595	-72.00002	352.58099	1359.88171	-76.58574	442.21631	1429.89990	-190.46992	306.08722	1388.50134	-179.55914	256.82922	1037.23083	427.89120	517.84839	1030.84448	363.83850	394.03589	1046.76868	323.65573	575.27356	1058.62878	264.38507	449.74283	1035.13159	267.03253	338.08820	1161.61768	268.02890	309.89365	1026.73193	166.55821	324.26682	1040.17664	175.65417	412.21814	1046.96326	54.81919	412.90616	1080.78101	-109.58715	380.57361	1155.54004	-102.11839	351.76285	1124.38843	-113.83005	438.35892	1103.56738	-243.53305	301.02106	1139.71875	-217.15625	256.56805	
